<svg width="24" height="24" viewBox="0 0 24 24" fill="none" xmlns="http://www.w3.org/2000/svg">
<path d="M22 1.5H12.5333V0.5H22C22.3921 0.5 22.7339 0.641009 23.0464 0.953553C23.359 1.2661 23.5 1.60794 23.5 2V22C23.5 22.3921 23.359 22.7339 23.0464 23.0464C22.7339 23.359 22.3921 23.5 22 23.5H12.5333V22.5H22H22.5V22V2V1.5H22ZM10.2 17.1262L9.47377 16.4L12.5202 13.3536L13.3738 12.5H12.1667H0.5V11.5H12.1H13.3071L12.4536 10.6464L9.40711 7.6L10.1333 6.87377L15.2929 12.0333L10.2 17.1262Z" stroke="white"/>
</svg>
