<svg width="24" height="24" viewBox="0 0 24 24" fill="none" xmlns="http://www.w3.org/2000/svg">
<path d="M2 22.5H11.4667V23.5H2C1.60794 23.5 1.2661 23.359 0.953553 23.0464C0.641009 22.7339 0.5 22.3921 0.5 22V2C0.5 1.60794 0.641009 1.2661 0.953553 0.953553C1.2661 0.641009 1.60794 0.5 2 0.5H11.4667V1.5H2H1.5V2V22V22.5H2ZM18.2 17.1262L17.4738 16.4L20.5202 13.3536L21.3738 12.5H20.1667H8.5V11.5H20.1H21.3071L20.4536 10.6464L17.4071 7.6L18.1333 6.87377L23.2929 12.0333L18.2 17.1262Z" stroke="white"/>
</svg>
