<svg width="11" height="16" viewBox="0 0 11 16" fill="none" xmlns="http://www.w3.org/2000/svg">
<path d="M3.49926 1.5C3.49926 1.10218 3.65729 0.720644 3.9386 0.43934C4.2199 0.158035 4.60143 0 4.99926 0C5.39708 0 5.77861 0.158035 6.05992 0.43934C6.34122 0.720644 6.49926 1.10218 6.49926 1.5C6.49926 1.89782 6.34122 2.27936 6.05992 2.56066C5.77861 2.84196 5.39708 3 4.99926 3C4.60143 3 4.2199 2.84196 3.9386 2.56066C3.65729 2.27936 3.49926 1.89782 3.49926 1.5ZM4.74926 11V15C4.74926 15.5531 4.30238 16 3.74926 16C3.19613 16 2.74926 15.5531 2.74926 15V8.02812L1.85551 9.51562C1.57113 9.9875 0.955506 10.1406 0.483631 9.85625C0.0117552 9.57187 -0.141369 8.95625 0.143006 8.48438L1.96488 5.45312C2.50863 4.55 3.48363 3.99688 4.53676 3.99688H5.46488C6.51801 3.99688 7.49301 4.55 8.03676 5.45312L9.85863 8.48438C10.143 8.95625 9.98988 9.57187 9.51801 9.85625C9.04613 10.1406 8.43051 9.9875 8.14613 9.51562L7.24926 8.02812V15C7.24926 15.5531 6.80238 16 6.24926 16C5.69613 16 5.24926 15.5531 5.24926 15V11H4.74926Z" fill="white"/>
</svg>
