<svg width="16" height="16" viewBox="0 0 16 16" fill="none" xmlns="http://www.w3.org/2000/svg">
<g clip-path="url(#clip0_49_12)">
<path d="M11.2969 0.0375584C11.4531 0.103183 11.5656 0.243808 11.5969 0.409433L12.2187 3.78131L15.5906 4.40006C15.7562 4.43131 15.8969 4.54381 15.9625 4.70006C16.0281 4.85631 16.0094 5.03443 15.9125 5.17506L13.9656 8.00006L15.9125 10.8219C16.0094 10.9626 16.0281 11.1407 15.9625 11.2969C15.8969 11.4532 15.7562 11.5657 15.5906 11.5969L12.2187 12.2188L11.5969 15.5907C11.5656 15.7563 11.4531 15.8969 11.2969 15.9626C11.1406 16.0282 10.9625 16.0094 10.8219 15.9126L8 13.9657L5.17812 15.9126C5.0375 16.0094 4.85937 16.0282 4.70312 15.9626C4.54687 15.8969 4.43437 15.7563 4.40312 15.5907L3.78125 12.2188L0.409372 11.5969C0.243747 11.5657 0.103122 11.4532 0.0374973 11.2969C-0.0281277 11.1407 -0.00937766 10.9626 0.0874973 10.8219L2.03437 8.00006L0.0874973 5.17818C-0.00937766 5.03756 -0.0281277 4.85943 0.0374973 4.70318C0.103122 4.54693 0.243747 4.43443 0.409372 4.40318L3.78125 3.78131L4.40312 0.409433C4.43437 0.243808 4.54687 0.103183 4.70312 0.0375584C4.85937 -0.0280666 5.0375 -0.00931662 5.17812 0.0875584L8 2.03443L10.8219 0.0875584C10.9625 -0.00931662 11.1406 -0.0280666 11.2969 0.0375584ZM5 8.00006C5 7.20441 5.31607 6.44135 5.87868 5.87874C6.44129 5.31613 7.20435 5.00006 8 5.00006C8.79565 5.00006 9.55871 5.31613 10.1213 5.87874C10.6839 6.44135 11 7.20441 11 8.00006C11 8.79571 10.6839 9.55877 10.1213 10.1214C9.55871 10.684 8.79565 11.0001 8 11.0001C7.20435 11.0001 6.44129 10.684 5.87868 10.1214C5.31607 9.55877 5 8.79571 5 8.00006ZM12 8.00006C12 6.93919 11.5786 5.92178 10.8284 5.17163C10.0783 4.42149 9.06086 4.00006 8 4.00006C6.93913 4.00006 5.92172 4.42149 5.17157 5.17163C4.42142 5.92178 4 6.93919 4 8.00006C4 9.06092 4.42142 10.0783 5.17157 10.8285C5.92172 11.5786 6.93913 12.0001 8 12.0001C9.06086 12.0001 10.0783 11.5786 10.8284 10.8285C11.5786 10.0783 12 9.06092 12 8.00006Z" fill="white"/>
</g>
<defs>
<clipPath id="clip0_49_12">
<rect width="16" height="16" fill="white"/>
</clipPath>
</defs>
</svg>
