<svg width="17" height="15" viewBox="0 0 17 15" fill="none" xmlns="http://www.w3.org/2000/svg">
<path d="M15.2526 3.57105C15.2634 3.72417 15.2634 3.87732 15.2634 4.03044C15.2634 8.70073 11.7577 14.082 5.35027 14.082C3.37627 14.082 1.54252 13.5023 0 12.4961C0.280468 12.5289 0.550112 12.5398 0.84137 12.5398C2.47016 12.5398 3.96955 11.982 5.16689 11.0305C3.63516 10.9976 2.35152 9.98045 1.90925 8.58044C2.12501 8.61323 2.34073 8.63511 2.56728 8.63511C2.88008 8.63511 3.19292 8.59134 3.48415 8.51482C1.8877 8.18667 0.690329 6.76481 0.690329 5.04762V5.00389C1.15415 5.26639 1.69353 5.43045 2.26519 5.4523C1.32674 4.81791 0.711911 3.73511 0.711911 2.5101C0.711911 1.85386 0.884468 1.2523 1.18652 0.727297C2.90163 2.87105 5.4797 4.27102 8.37054 4.42417C8.31662 4.16167 8.28425 3.88826 8.28425 3.61482C8.28425 1.66792 9.83756 0.0820007 11.7684 0.0820007C12.7716 0.0820007 13.6776 0.508562 14.3141 1.19763C15.1015 1.04451 15.8566 0.74918 16.5254 0.344503C16.2665 1.16483 15.7164 1.8539 14.9937 2.29137C15.6948 2.21484 16.3744 2.01792 17 1.74451C16.5255 2.44448 15.9322 3.0679 15.2526 3.57105Z" fill="white"/>
</svg>
