<svg width="10" height="16" viewBox="0 0 10 16" fill="none" xmlns="http://www.w3.org/2000/svg">
<path d="M4.99926 0C5.39708 0 5.77861 0.158035 6.05992 0.43934C6.34122 0.720644 6.49926 1.10218 6.49926 1.5C6.49926 1.89782 6.34122 2.27936 6.05992 2.56066C5.77861 2.84196 5.39708 3 4.99926 3C4.60143 3 4.2199 2.84196 3.9386 2.56066C3.65729 2.27936 3.49926 1.89782 3.49926 1.5C3.49926 1.10218 3.65729 0.720644 3.9386 0.43934C4.2199 0.158035 4.60143 0 4.99926 0ZM2.74926 12H2.19301C1.85238 12 1.61176 11.6656 1.71801 11.3406L2.91488 7.75313L1.85551 9.51562C1.57113 9.9875 0.955506 10.1406 0.483631 9.85625C0.0117555 9.57187 -0.141369 8.95625 0.143006 8.48438L1.81801 5.69688C2.45238 4.64375 3.58988 4 4.81801 4H5.18051C6.40863 4 7.54613 4.64375 8.1805 5.69688L9.8555 8.48438C10.1399 8.95625 9.98676 9.57187 9.51488 9.85625C9.04301 10.1406 8.42738 9.9875 8.14301 9.51562L7.08363 7.75625L8.28051 11.3406C8.38988 11.6656 8.14613 12 7.80551 12H7.24926V15C7.24926 15.5531 6.80238 16 6.24926 16C5.69613 16 5.24926 15.5531 5.24926 15V12H4.74926V15C4.74926 15.5531 4.30238 16 3.74926 16C3.19613 16 2.74926 15.5531 2.74926 15V12Z" fill="#0066AE"/>
</svg>
