<svg width="26" height="30" viewBox="0 0 26 30" fill="none" xmlns="http://www.w3.org/2000/svg">
<path d="M25.4978 3.51656C26.2628 2.60592 26.1409 1.25335 25.2202 0.49672C24.2994 -0.259914 22.9319 -0.139389 22.1668 0.771251L13 11.6521L3.83316 0.771251C3.06813 -0.139389 1.70056 -0.259914 0.77981 0.49672C-0.140935 1.25335 -0.262799 2.60592 0.502232 3.51656L10.1768 15L0.502232 26.4834C-0.262799 27.3941 -0.140935 28.7466 0.77981 29.5033C1.70056 30.2599 3.06813 30.1394 3.83316 29.2287L13 18.3479L22.1668 29.2287C22.9319 30.1394 24.2994 30.2599 25.2202 29.5033C26.1409 28.7466 26.2628 27.3941 25.4978 26.4834L15.8232 15L25.4978 3.51656Z" fill="white"/>
</svg>
